<svg width="24" height="24" viewBox="0 0 24 24" fill="none" xmlns="http://www.w3.org/2000/svg">
<path d="M5.07819 9.45696C5.07819 8.67896 5.21419 7.94396 5.48219 7.25796C5.73824 6.59166 6.11867 5.98013 6.60319 5.45596C7.08672 4.93867 7.64006 4.49136 8.24719 4.12696C8.8701 3.75011 9.54449 3.4658 10.2492 3.28296C10.9624 3.09568 11.6968 3.00123 12.4342 3.00196C13.5732 3.00196 14.6332 3.24296 15.6162 3.72296C16.5864 4.1942 17.4121 4.9174 18.0072 5.81696C18.6212 6.73196 18.9262 7.76696 18.9262 8.92096C18.9262 9.61296 18.8582 10.29 18.7192 10.952C18.5827 11.6136 18.3658 12.256 18.0732 12.865C17.7943 13.4544 17.4297 13.9993 16.9912 14.482C16.5505 14.9569 16.0167 15.3361 15.4232 15.596C14.7788 15.8784 14.0817 16.0205 13.3782 16.013C12.8892 16.013 12.4012 15.898 11.9192 15.667C11.4372 15.437 11.0912 15.121 10.8832 14.716C10.8102 14.997 10.7102 15.403 10.5772 15.934C10.4492 16.464 10.3632 16.806 10.3252 16.961C10.2852 17.115 10.2112 17.372 10.1032 17.728C10.0299 17.9913 9.93599 18.2484 9.82219 18.497L9.47819 19.171C9.32942 19.4602 9.16311 19.74 8.98019 20.009C8.79919 20.271 8.57519 20.584 8.30819 20.944L8.15919 20.997L8.06019 20.889C7.95319 19.756 7.89819 19.078 7.89819 18.854C7.89819 18.191 7.97719 17.447 8.13319 16.621C8.28619 15.796 8.52819 14.759 8.85319 13.512C9.17819 12.266 9.36419 11.533 9.41419 11.316C9.18519 10.849 9.06919 10.239 9.06919 9.48896C9.06919 8.88996 9.25619 8.32896 9.63119 7.80096C10.0072 7.27496 10.4822 7.01196 11.0582 7.01196C11.4992 7.01196 11.8412 7.15796 12.0862 7.45096C12.3322 7.74296 12.4522 8.11096 12.4522 8.55996C12.4522 9.03596 12.2942 9.72496 11.9762 10.626C11.6582 11.528 11.5002 12.201 11.5002 12.648C11.5002 13.101 11.6622 13.48 11.9862 13.777C12.3059 14.0741 12.7288 14.2351 13.1652 14.226C13.5612 14.226 13.9282 14.136 14.2692 13.955C14.6049 13.7793 14.8954 13.5284 15.1182 13.222C15.6034 12.5563 15.9493 11.7995 16.1352 10.997C16.2312 10.575 16.3052 10.174 16.3512 9.79696C16.4002 9.41796 16.4212 9.05996 16.4212 8.71996C16.4212 7.47296 16.0252 6.50096 15.2382 5.80496C14.4472 5.10896 13.4172 4.76296 12.1502 4.76296C10.7092 4.76296 9.50419 5.22896 8.53919 6.16396C7.57319 7.09596 7.08719 8.28096 7.08719 9.71796C7.08719 10.035 7.13519 10.341 7.22619 10.637C7.31519 10.932 7.41219 11.167 7.51719 11.341C7.62119 11.512 7.71919 11.679 7.80819 11.833C7.89819 11.987 7.94519 12.097 7.94519 12.163C7.94519 12.365 7.89219 12.628 7.78519 12.953C7.67419 13.278 7.54319 13.44 7.38519 13.44C7.37019 13.44 7.30819 13.429 7.20019 13.406C6.82615 13.2943 6.48836 13.0855 6.22119 12.801C5.93763 12.506 5.71384 12.159 5.56219 11.779C5.41097 11.4003 5.29318 11.0091 5.21019 10.61C5.12052 10.2322 5.07621 9.84517 5.07819 9.45696V9.45696Z" fill="white"/>
</svg>
